<svg width="32" height="31" viewBox="0 0 32 31" fill="none" xmlns="http://www.w3.org/2000/svg">
<rect x="2.1333" y="24.1113" width="5.33333" height="6.88889" rx="1" fill="#F8DB06"/>
<rect x="24.5332" y="24.1113" width="5.33333" height="6.88889" rx="1" fill="#F8DB06"/>
<mask id="path-3-inside-1_388_678" fill="white">
<path d="M0 7.99999C0 3.58172 3.58172 0 8 0H24C28.4183 0 32 3.58172 32 8V21.8519C32 26.2701 28.4183 29.8518 24 29.8518H8C3.58172 29.8518 0 26.2701 0 21.8518V7.99999Z"/>
</mask>
<path d="M0 7.99999C0 3.58172 3.58172 0 8 0H24C28.4183 0 32 3.58172 32 8V21.8519C32 26.2701 28.4183 29.8518 24 29.8518H8C3.58172 29.8518 0 26.2701 0 21.8518V7.99999Z" fill="#AD6643"/>
<path d="M0 0H32H0M35 21.8518C35 27.927 30.0751 32.8518 24 32.8518H8C1.92487 32.8518 -3 27.927 -3 21.8518H3C3 24.6133 5.23858 26.8518 8 26.8518H24C26.7614 26.8518 29 24.6133 29 21.8518H35ZM8 32.8518C1.92487 32.8518 -3 27.927 -3 21.8518V11C-3 4.92487 1.92487 0 8 0C5.23858 0 3 3.58172 3 8V21.8518C3 24.6133 5.23858 26.8518 8 26.8518V32.8518ZM24 0C30.0751 0 35 4.92487 35 11V21.8518C35 27.927 30.0751 32.8518 24 32.8518V26.8518C26.7614 26.8518 29 24.6133 29 21.8518V8C29 3.58172 26.7614 0 24 0Z" fill="#F8DB06" mask="url(#path-3-inside-1_388_678)"/>
<rect x="2" y="13" width="28" height="5" fill="#F8DB06"/>
<rect x="11.7334" y="11.4814" width="8.53333" height="9.18519" rx="1" fill="#F8DB06"/>
<path d="M15.6196 13.5712C15.7393 13.2027 16.2607 13.2027 16.3804 13.5712L16.696 14.5424C16.7495 14.7072 16.9031 14.8188 17.0764 14.8188H18.0976C18.4851 14.8188 18.6462 15.3147 18.3327 15.5424L17.5066 16.1427C17.3664 16.2445 17.3077 16.4251 17.3613 16.5899L17.6768 17.5611C17.7966 17.9297 17.3748 18.2361 17.0613 18.0083L16.2351 17.4081C16.0949 17.3062 15.9051 17.3062 15.7649 17.4081L14.9387 18.0083C14.6252 18.2361 14.2034 17.9297 14.3232 17.5611L14.6387 16.5899C14.6923 16.4251 14.6336 16.2445 14.4934 16.1427L13.6673 15.5424C13.3538 15.3147 13.5149 14.8188 13.9024 14.8188H14.9236C15.0969 14.8188 15.2505 14.7072 15.304 14.5424L15.6196 13.5712Z" fill="#DE9206"/>
</svg>
