<svg width="43" height="43" viewBox="0 0 43 43" fill="none" xmlns="http://www.w3.org/2000/svg">
<rect x="10.75" y="14.333" width="21.5" height="23.8889" fill="#FFE207"/>
<path d="M15.29 0.455614C16.0386 -0.157441 17.2 -0.149043 17.9487 0.464012C20.5978 2.6391 23.0837 4.98215 25.4065 7.51835C26.4623 6.30904 27.6621 4.99055 28.9578 3.9156C29.7161 3.29415 30.8871 3.29415 31.6453 3.924C34.9663 6.69535 37.7786 10.3569 39.7558 13.8337C41.7042 17.2601 43 20.762 43 23.2311C43 33.9469 33.421 43 21.5 43C9.44464 43 0 33.9385 0 23.2227C0 19.9978 1.70848 16.0591 4.35759 12.1625C7.03549 8.20699 10.8172 4.08356 15.29 0.455614ZM21.6632 34.9379C24.0915 34.9379 26.2415 34.35 28.2667 33.1743C32.3076 30.7053 33.3922 25.7673 30.9638 21.8874C30.5319 21.1315 29.4281 21.0812 28.8042 21.7194L26.3855 24.18C25.752 24.8183 24.6098 24.8015 24.0147 24.138C22.431 22.3745 19.5996 19.2252 17.9871 17.4364C17.3824 16.7646 16.2306 16.7562 15.6163 17.428C12.3721 20.9972 10.7404 23.2478 10.7404 25.7757C10.75 31.5283 15.6067 34.9379 21.6632 34.9379Z" fill="#EF9C01"/>
</svg>
