<svg width="28" height="30" viewBox="0 0 28 30" fill="none" xmlns="http://www.w3.org/2000/svg">
<rect x="7" y="10" width="14" height="16.6667" fill="#C5C0B5"/>
<path d="M9.95625 0.31787C10.4438 -0.109843 11.2 -0.103984 11.6875 0.32373C13.4125 1.84123 15.0313 3.47592 16.5438 5.24536C17.2313 4.40165 18.0125 3.48178 18.8563 2.73181C19.35 2.29824 20.1125 2.29824 20.6063 2.73767C22.7688 4.67117 24.6 7.22573 25.8875 9.65139C27.1563 12.0419 28 14.4851 28 16.2077C28 23.6839 21.7625 30 14 30C6.15 30 0 23.678 0 16.2019C0 13.952 1.1125 11.2041 2.8375 8.48544C4.58125 5.72581 7.04375 2.849 9.95625 0.31787ZM14.1063 24.3753C15.6875 24.3753 17.0875 23.9651 18.4063 23.1449C21.0375 21.4223 21.7438 17.9772 20.1625 15.2703C19.8813 14.7429 19.1625 14.7078 18.7563 15.1531L17.1813 16.8698C16.7688 17.3151 16.025 17.3034 15.6375 16.8405C14.6063 15.6101 12.7625 13.4129 11.7125 12.1649C11.3188 11.6962 10.5687 11.6904 10.1687 12.1591C8.05625 14.6492 6.99375 16.2194 6.99375 17.983C7 21.9965 10.1625 24.3753 14.1063 24.3753Z" fill="#E5DFD4"/>
</svg>
