<svg width="30" height="30" viewBox="0 0 30 30" fill="none" xmlns="http://www.w3.org/2000/svg">
<path d="M2.5 11.4212C2.5 17.5 7.525 20.7387 11.2025 23.6387C12.5 24.6612 13.75 25.625 15 25.625C16.25 25.625 17.5 24.6625 18.7975 23.6375C22.4763 20.74 27.5 17.5 27.5 11.4225C27.5 5.34499 20.625 1.03124 15 6.87624C9.375 1.03124 2.5 5.34249 2.5 11.4212Z" fill="#FF4D4D"/>
<path d="M25 10C25 11.6569 23.6569 13 22 13C20.3431 13 19 11.6569 19 10C19 8.34315 20.3431 7 22 7C23.6569 7 25 8.34315 25 10Z" fill="#FF6D6D"/>
<path d="M25 10C25 11.6569 23.6569 13 22 13C20.3431 13 19 11.6569 19 10C19 8.34315 20.3431 7 22 7C23.6569 7 25 8.34315 25 10Z" fill="#FF6D6D"/>
</svg>
