<svg width="26" height="23" viewBox="0 0 26 23" fill="none" xmlns="http://www.w3.org/2000/svg">
<path d="M6.04651 0H19.3488L26 11.8108L19.3488 23H6.65116L0 11.8108L6.04651 0Z" fill="#1BB7F0" fill-opacity="0.74"/>
<path d="M7.65116 2H17.8837L23 11.5L17.8837 20.5H8.11628L3 11.5L7.65116 2Z" fill="#1BB7F0" fill-opacity="0.74"/>
<path d="M16.3614 3.95243C16.1927 3.62867 16.4166 3.23915 16.7813 3.22196L17.3824 3.19362C17.5753 3.18453 17.7561 3.28724 17.847 3.4575L21.498 10.2932C21.671 10.6171 21.4474 11.0109 21.0805 11.0282L20.3919 11.0606C20.1973 11.0698 20.015 10.965 19.925 10.7922L16.3614 3.95243Z" fill="#61D5FF"/>
<path d="M4.40248 13.2595C4.21462 12.9465 4.41468 12.5442 4.77765 12.5051L5.37601 12.4406C5.56793 12.42 5.75461 12.5116 5.85563 12.6761L9.91121 19.2797C10.1034 19.5927 9.90387 19.9992 9.53869 20.0385L8.85334 20.1123C8.65958 20.1332 8.47134 20.0396 8.37106 19.8725L4.40248 13.2595Z" fill="#61D5FF"/>
</svg>
