<svg width="40" height="40" viewBox="0 0 40 40" fill="none" xmlns="http://www.w3.org/2000/svg">
<path d="M4.99988 21.6665H6.66655V33.3332C6.66655 35.1665 8.16655 36.6665 9.99988 36.6665H29.9999C31.8332 36.6665 33.3332 35.1665 33.3332 33.3332V21.6665H34.9999C35.6665 21.6665 36.2832 21.2665 36.5332 20.6332C36.7999 20.0165 36.6499 19.2998 36.1665 18.8165L21.1832 3.81651C21.029 3.662 20.8459 3.53942 20.6443 3.45579C20.4426 3.37215 20.2265 3.3291 20.0082 3.3291C19.7899 3.3291 19.5738 3.37215 19.3722 3.45579C19.1706 3.53942 18.9874 3.662 18.8332 3.81651L3.81655 18.8165C3.33321 19.2998 3.19988 20.0165 3.44988 20.6332C3.69988 21.2498 4.31655 21.6665 4.98321 21.6665H4.99988Z" fill="#FFE207"/>
<path d="M16.25 32.5C16.25 30.4289 17.9289 28.75 20 28.75V28.75C22.0711 28.75 23.75 30.4289 23.75 32.5V36.25H16.25V32.5Z" fill="#DE9206"/>
<path d="M19.299 3.18916C19.6881 2.80666 20.3119 2.80666 20.701 3.18916L38.2842 20.4744C38.9225 21.1018 38.4782 22.1875 37.5832 22.1875H2.41685C1.52182 22.1875 1.07755 21.1018 1.71581 20.4744L19.299 3.18916Z" fill="#AD6643"/>
<path d="M19.3453 1.81695C19.7211 1.49152 20.2789 1.49152 20.6547 1.81695L25.5502 6.05657C26.2501 6.66271 25.8214 7.8125 24.8955 7.8125H15.1045C14.1786 7.8125 13.7499 6.66271 14.4498 6.05657L19.3453 1.81695Z" fill="url(#paint0_linear_388_722)"/>
<path d="M24.4043 10.9094C24.4017 10.5219 24.8965 10.3574 25.1263 10.6694L25.7321 11.4915C25.8349 11.631 26.0159 11.6885 26.1803 11.6338L27.1494 11.3117C27.5171 11.1895 27.8264 11.6092 27.6007 11.9242L27.0061 12.7544C26.9051 12.8953 26.9064 13.0851 27.0092 13.2246L27.615 14.0468C27.8449 14.3587 27.5413 14.7826 27.1719 14.6653L26.1986 14.3563C26.0335 14.3038 25.8533 14.3637 25.7524 14.5046L25.1577 15.3348C24.9321 15.6498 24.4351 15.492 24.4325 15.1045L24.4257 14.0833C24.4245 13.91 24.3119 13.7572 24.1467 13.7048L23.1734 13.3957C22.8041 13.2785 22.8006 12.7571 23.1683 12.6349L24.1374 12.3128C24.3018 12.2582 24.4124 12.1038 24.4112 11.9305L24.4043 10.9094Z" fill="#C98766" fill-opacity="0.3"/>
<defs>
<linearGradient id="paint0_linear_388_722" x1="20" y1="1.25" x2="20" y2="10" gradientUnits="userSpaceOnUse">
<stop stop-color="#EEDFD7"/>
<stop offset="0.475962" stop-color="#C98766"/>
</linearGradient>
</defs>
</svg>
