<svg width="38" height="39" viewBox="0 0 38 39" fill="none" xmlns="http://www.w3.org/2000/svg">
<path d="M32.5 6.5V31.5H8.5V6.5H32.5Z" fill="#AD6643" stroke="#FFE4B1"/>
<path d="M8.69995 30L31.7 30" stroke="#FFE4B1" stroke-width="4" stroke-linecap="round"/>
<path d="M9.519 28.5003H33.25V6.33366C33.25 4.58724 31.8298 3.16699 30.0833 3.16699H9.5C7.5905 3.16699 4.75 4.43208 4.75 7.91699V30.0837C4.75 33.5686 7.5905 34.8337 9.5 34.8337H33.25V31.667H9.519C8.7875 31.648 7.91667 31.3598 7.91667 30.0837C7.91667 29.9253 7.92933 29.7812 7.95467 29.6514C8.132 28.7394 8.87933 28.5162 9.519 28.5003ZM13.6927 12.1002C14.3517 11.4495 15.2405 11.0847 16.1666 11.0847C17.0927 11.0847 17.9815 11.4495 18.6406 12.1002L18.9952 12.4469L19.3483 12.1002C20.0076 11.4494 20.8967 11.0845 21.8231 11.0845C22.7494 11.0845 23.6385 11.4494 24.2978 12.1002C24.6247 12.4148 24.8847 12.7921 25.0623 13.2096C25.2399 13.6271 25.3314 14.0761 25.3314 14.5298C25.3314 14.9835 25.2399 15.4325 25.0623 15.8499C24.8847 16.2674 24.6247 16.6448 24.2978 16.9594L18.9968 22.167L13.6943 16.9594C13.3673 16.6449 13.1072 16.2676 12.9295 15.8502C12.7517 15.4328 12.6601 14.9838 12.6599 14.5301C12.6598 14.0764 12.7511 13.6274 12.9286 13.2099C13.1061 12.7923 13.3659 12.4149 13.6927 12.1002Z" fill="#AD6643"/>
<rect x="5.69995" y="7" width="2" height="21" rx="0.5" fill="#C98766"/>
<path d="M9 31H13V39L11 37.2857L9 39V31Z" fill="#FF4646"/>
<rect x="14" y="32" width="18" height="2" fill="#C98766"/>
<path d="M11 31H13V38L11 36.6875V31Z" fill="#FFE207"/>
<path d="M13.25 13.7104C13.25 16.7498 15.7625 18.3691 17.6012 19.8191C18.25 20.3304 18.875 20.8123 19.5 20.8123C20.125 20.8123 20.75 20.331 21.3988 19.8185C23.2381 18.3697 25.75 16.7498 25.75 13.711C25.75 10.6723 22.3125 8.51538 19.5 11.4379C16.6875 8.51538 13.25 10.671 13.25 13.7104Z" fill="#FFE4B1"/>
<path d="M14.0833 14.9493C14.0833 17.5834 16.2608 18.9868 17.8543 20.2435C18.4166 20.6866 18.9583 21.1042 19.4999 21.1042C20.0416 21.1042 20.5833 20.6871 21.1455 20.243C22.7396 18.9874 24.9166 17.5834 24.9166 14.9498C24.9166 12.3162 21.9374 10.4469 19.4999 12.9798C17.0624 10.4469 14.0833 12.3151 14.0833 14.9493Z" fill="#FED07A"/>
</svg>
