<svg width="34" height="34" viewBox="0 0 34 34" fill="none" xmlns="http://www.w3.org/2000/svg">
<path d="M14.2168 1.5C21.2391 1.5 26.9336 7.19727 26.9336 14.2275C26.9336 21.2578 21.2391 26.9551 14.2168 26.9551C7.19455 26.955 1.50001 21.2577 1.5 14.2275C1.5 7.19732 7.19454 1.50008 14.2168 1.5Z" fill="#61D5FF" fill-opacity="0.3" stroke="#AD6643" stroke-width="3"/>
<ellipse cx="18.3635" cy="8.8918" rx="2.96186" ry="2.96407" fill="white"/>
<path d="M27.1965 24.9507C26.6109 24.3647 25.6615 24.3647 25.076 24.9507C24.4904 25.5367 24.4904 26.4868 25.076 27.0728L26.1362 26.0117L27.1965 24.9507ZM30.9997 33.0009C31.5853 33.5869 32.5347 33.5869 33.1202 33.0009C33.7058 32.4149 33.7058 31.4648 33.1202 30.8788L32.06 31.9399L30.9997 33.0009ZM26.1362 26.0117L25.076 27.0728L30.9997 33.0009L32.06 31.9399L33.1202 30.8788L27.1965 24.9507L26.1362 26.0117Z" fill="#61D5FF"/>
<path d="M27.1965 24.9507C26.6109 24.3647 25.6615 24.3647 25.076 24.9507C24.4904 25.5367 24.4904 26.4868 25.076 27.0728L26.1362 26.0117L27.1965 24.9507ZM26.1362 26.0117L25.076 27.0728L25.3273 27.3243L26.3876 26.2632L27.4478 25.2022L27.1965 24.9507L26.1362 26.0117Z" fill="#F8DB06"/>
<path d="M18.937 18.2872C18.4428 18.9519 18.5811 19.8917 19.2458 20.3862C19.9105 20.8808 20.8501 20.7428 21.3443 20.0781L20.1406 19.1826L18.937 18.2872ZM23.2124 14.2339C23.2158 13.4054 22.5472 12.7307 21.7188 12.727C20.8905 12.7232 20.2162 13.3918 20.2128 14.2204L21.7126 14.2272L23.2124 14.2339ZM20.1406 19.1826L21.3443 20.0781C22.0216 19.1669 22.515 18.3256 22.82 17.3523C23.1216 16.3895 23.2075 15.3964 23.2124 14.2339L21.7126 14.2272L20.2128 14.2204C20.2085 15.2569 20.1292 15.9064 19.9576 16.4541C19.7893 16.9912 19.5012 17.5282 18.937 18.2872L20.1406 19.1826Z" fill="white"/>
</svg>
