<svg width="35" height="35" viewBox="0 0 35 35" fill="none" xmlns="http://www.w3.org/2000/svg">
<path d="M0 16C0 10.4772 4.47715 6 10 6H25C30.5228 6 35 10.4772 35 16V24C35 29.5228 30.5228 34 25 34H10C4.47715 34 0 29.5228 0 24V16Z" fill="#F8DB06"/>
<path d="M10.44 19.38C10.44 18.82 10.6133 18.3533 10.96 17.98C11.3067 17.6067 11.78 17.42 12.38 17.42C12.98 17.42 13.4533 17.6067 13.8 17.98C14.1467 18.3533 14.32 18.82 14.32 19.38C14.32 19.94 14.1467 20.4067 13.8 20.78C13.4533 21.1533 12.98 21.34 12.38 21.34C11.78 21.34 11.3067 21.1533 10.96 20.78C10.6133 20.4067 10.44 19.94 10.44 19.38ZM15.2056 19.38C15.2056 18.82 15.379 18.3533 15.7256 17.98C16.0723 17.6067 16.5456 17.42 17.1456 17.42C17.7456 17.42 18.219 17.6067 18.5656 17.98C18.9123 18.3533 19.0856 18.82 19.0856 19.38C19.0856 19.94 18.9123 20.4067 18.5656 20.78C18.219 21.1533 17.7456 21.34 17.1456 21.34C16.5456 21.34 16.0723 21.1533 15.7256 20.78C15.379 20.4067 15.2056 19.94 15.2056 19.38ZM19.9713 19.38C19.9713 18.82 20.1446 18.3533 20.4913 17.98C20.8379 17.6067 21.3113 17.42 21.9113 17.42C22.5113 17.42 22.9846 17.6067 23.3313 17.98C23.6779 18.3533 23.8513 18.82 23.8513 19.38C23.8513 19.94 23.6779 20.4067 23.3313 20.78C22.9846 21.1533 22.5113 21.34 21.9113 21.34C21.3113 21.34 20.8379 21.1533 20.4913 20.78C20.1446 20.4067 19.9713 19.94 19.9713 19.38Z" fill="white"/>
</svg>
