<svg width="29" height="48" viewBox="0 0 29 48" fill="none" xmlns="http://www.w3.org/2000/svg">
<g clip-path="url(#clip0_388_715)">
<path fill-rule="evenodd" clip-rule="evenodd" d="M22.0696 4.39399C21.9555 4.31715 21.8222 4.27365 21.6847 4.26837C21.5472 4.2631 21.411 4.29625 21.2913 4.36412L16.733 7.05003C16.6586 7.08771 16.576 7.1062 16.4926 7.10379C16.4093 7.10139 16.3278 7.07818 16.2557 7.03627C16.1836 6.99437 16.1232 6.9351 16.0798 6.86386C16.0365 6.79262 16.0117 6.71167 16.0076 6.62838L16.2599 3.5278L16.2619 3.48206C16.261 3.3484 16.2208 3.21796 16.1462 3.10703C16.0717 2.9961 15.9661 2.90961 15.8426 2.85836C15.7129 2.80524 15.5696 2.79481 15.4336 2.82856C15.2975 2.86232 15.1758 2.93851 15.0859 3.04611C14.3915 3.8656 13.6858 4.73188 13.0456 5.67633C12.4059 6.61994 11.8625 7.5962 11.3584 8.54475C10.9755 9.27192 10.8507 10.1075 11.0044 10.9148C11.158 11.7221 11.5811 12.4534 12.2044 12.989C13.026 13.691 13.895 14.4069 14.8452 15.0511C15.7955 15.6953 16.7828 16.2365 17.7386 16.7407C18.467 17.1213 19.3029 17.2435 20.1097 17.0873C20.9166 16.9311 21.6465 16.5058 22.1802 15.8808C22.8747 15.0613 23.5803 14.195 24.2206 13.2506C24.8602 12.307 25.4036 11.3307 25.9077 10.3822C25.9744 10.2589 26.0001 10.1175 25.9811 9.97866C25.962 9.83978 25.8993 9.71057 25.8019 9.60974C25.7031 9.50891 25.5753 9.44134 25.4364 9.41641C25.2974 9.39148 25.1541 9.41042 25.0264 9.47061L22.2388 10.8525C22.1599 10.8795 22.0755 10.8865 21.9933 10.8726C21.9111 10.8587 21.8336 10.8245 21.768 10.773C21.7024 10.7216 21.6507 10.6545 21.6176 10.578C21.5845 10.5015 21.5711 10.4179 21.5785 10.3348L22.3848 5.10536L22.3877 5.08319C22.4019 4.9503 22.3798 4.81605 22.3238 4.69471C22.2678 4.57336 22.1799 4.46944 22.0696 4.39399Z" fill="#FFE207"/>
<circle cx="20.0399" cy="15.3041" r="1.1" fill="#FDF5BB"/>
<path d="M23.9398 12.2042C23.9398 12.2042 22.7246 13.6518 21.9398 14.2042" stroke="#FDF5BB" stroke-linecap="round"/>
</g>
<circle cx="10.5" cy="21.7041" r="7.5" fill="#FF4D4D"/>
<path d="M0 41.2041C0 35.6813 4.47715 31.2041 10 31.2041V31.2041C15.5228 31.2041 20 35.6813 20 41.2041V47.2041H0V41.2041Z" fill="#F83F3F"/>
<path d="M11 31.2041V31.2041C16.5228 31.2041 21 35.6813 21 41.2041V47.2041H11V31.2041Z" fill="#FF4D4D"/>
<defs>
<clipPath id="clip0_388_715">
<rect width="14" height="14" fill="white" transform="translate(16.5913) rotate(34.1332)"/>
</clipPath>
</defs>
</svg>
