<svg width="42" height="39" viewBox="0 0 42 39" fill="none" xmlns="http://www.w3.org/2000/svg">
<path d="M40.8298 16.4631L17.9339 37.2024C17.1691 37.895 16.1485 38.3409 15.0442 38.4648C13.9399 38.5887 12.8195 38.3832 11.8717 37.8828C10.9239 37.3823 10.2067 36.6177 9.841 35.7176C9.47529 34.8175 9.48341 33.8371 9.86399 32.9416L13.5 24.3841H5.03102C4.20881 24.3841 3.39913 24.2117 2.67283 23.8819C1.94653 23.5522 1.32576 23.0752 0.864842 22.4927C0.403922 21.9101 0.116902 21.2398 0.0289005 20.5404C-0.0591013 19.8409 0.0545973 19.1337 0.360046 18.4806L7.32901 3.57548C7.82373 2.52102 8.6756 1.61718 9.77521 0.980063C10.8748 0.342945 12.1719 0.00164414 13.5 0H25.4999C28.4039 0 30.4109 2.48204 29.3939 4.80751L26.9999 10.267H37.7068C38.5456 10.267 39.3661 10.4772 40.0668 10.8717C40.7675 11.2661 41.3178 11.8276 41.6497 12.4867C41.9816 13.1458 42.0805 13.8737 41.9343 14.5803C41.788 15.287 41.406 15.9416 40.8298 16.4631Z" fill="#FFE207"/>
<rect width="2.92071" height="10.6264" rx="1" transform="matrix(0.92179 0.387691 -0.498176 0.867076 11.2939 6.41699)" fill="#FFF186"/>
</svg>
